<svg id="Layer_1" data-name="Layer 1" xmlns="http://www.w3.org/2000/svg" viewBox="0 0 175.82 175.82">
  <g>
    <g>
      <circle cx="89" cy="89.05" r="87.91" transform="translate(-37.99 87.88) rotate(-45)" style="fill: #2d2424"/>
      <g>
        <path d="M106.09,16.32a74.74,74.74,0,0,1,57.43,67.54" transform="translate(-1.09 -1.14)" style="fill: none;stroke: #feebb2;stroke-linecap: round;stroke-miterlimit: 10;stroke-width: 1.10369px"/>
        <path d="M14.46,84.16a74.74,74.74,0,0,1,58.08-68" transform="translate(-1.09 -1.14)" style="fill: none;stroke: #feebb2;stroke-linecap: round;stroke-miterlimit: 10;stroke-width: 1.10369px"/>
        <path d="M25.27,128A74.31,74.31,0,0,1,14.76,97.41" transform="translate(-1.09 -1.14)" style="fill: none;stroke: #feebb2;stroke-linecap: round;stroke-miterlimit: 10;stroke-width: 1.10369px"/>
        <path d="M163.2,97.78a74.18,74.18,0,0,1-11,31" transform="translate(-1.09 -1.14)" style="fill: none;stroke: #feebb2;stroke-linecap: round;stroke-miterlimit: 10;stroke-width: 1.10369px"/>
      </g>
      <circle cx="87.91" cy="89.02" r="61.67" style="fill: #e0c097"/>
      <text transform="matrix(0.63, 0.78, -0.78, 0.63, 21.67, 135.74)" style="font-size: 18px;fill: #e0c097;font-family: Nunito-BlackItalic, Nunito;font-weight: 800;font-style: italic">s</text>
      <text transform="matrix(0.74, 0.67, -0.67, 0.74, 29.32, 144.94)" style="font-size: 18px;fill: #e0c097;font-family: Nunito-BlackItalic, Nunito;font-weight: 800;font-style: italic">p</text>
      <text transform="translate(40.14 154.24) rotate(32.23)" style="font-size: 18px;fill: #e0c097;font-family: Nunito-BlackItalic, Nunito;font-weight: 800;font-style: italic">a</text>
      <text transform="translate(51.45 161.03) rotate(23.47)" style="font-size: 18px;fill: #e0c097;font-family: Nunito-BlackItalic, Nunito;font-weight: 800;font-style: italic">c</text>
      <text transform="translate(62.03 165.45) rotate(14.92)" style="font-size: 18px;fill: #e0c097;font-family: Nunito-BlackItalic, Nunito;font-weight: 800;font-style: italic">e</text>
      <text transform="translate(74.46 168.42) rotate(7.61)" style="font-size: 18px;fill: #e0c097;font-family: Nunito-BlackItalic, Nunito;font-weight: 800;font-style: italic"> </text>
      <text transform="translate(82.05 169.32) rotate(2.27)" style="font-size: 18px;fill: #e0c097;font-family: Nunito-BlackItalic, Nunito;font-weight: 800;font-style: italic">j</text>
      <text transform="translate(90.02 169.64) rotate(-5.21)" style="font-size: 18px;fill: #e0c097;font-family: Nunito-BlackItalic, Nunito;font-weight: 800;font-style: italic">o</text>
      <text transform="matrix(0.97, -0.26, 0.26, 0.97, 103.87, 168.11)" style="font-size: 18px;fill: #e0c097;font-family: Nunito-BlackItalic, Nunito;font-weight: 800;font-style: italic">u</text>
      <text transform="translate(117.08 164.21) rotate(-23.69)" style="font-size: 18px;fill: #e0c097;font-family: Nunito-BlackItalic, Nunito;font-weight: 800;font-style: italic">r</text>
      <text transform="translate(126.91 159.78) rotate(-32.36)" style="font-size: 18px;fill: #e0c097;font-family: Nunito-BlackItalic, Nunito;font-weight: 800;font-style: italic">n</text>
      <text transform="translate(138.56 152.05) rotate(-41.82)" style="font-size: 18px;fill: #e0c097;font-family: Nunito-BlackItalic, Nunito;font-weight: 800;font-style: italic">e</text>
      <text transform="matrix(0.63, -0.77, 0.77, 0.63, 147.97, 143.33)" style="font-size: 18px;fill: #e0c097;font-family: Nunito-BlackItalic, Nunito;font-weight: 800;font-style: italic">y</text>
      <g>
        <g>
          <path d="M64.46,112.17c.37-3.73-3.36-9.51-8.39-8.39-.55-8.36-7.82-21.65-26.46-15.11,0,.13,0,.25,0,.38a59.06,59.06,0,0,0,6.23,26.47c12.28-4,19.73,6.78,19.86,11.67.84-1.94,5.56-2.5,7.09-.69.41-6.12,7.22-8.48,11.94-5.42,2.68-1.12,5.33-4,7.44-7.87C75.3,118.77,67.67,109.85,64.46,112.17Z" transform="translate(-1.09 -1.14)" style="fill: #e0c097"/>
          <path d="M122.08,103.78c-5-1.12-8.76,4.66-8.39,8.39-3.12-2.25-10.41,6.09-17.11,1.49,2.07,3.6,4.62,6.34,7.19,7.42,4.73-3.06,11.53-.7,12,5.42,1.53-1.81,6.25-1.25,7.08.69.14-4.83,7.41-15.38,19.44-11.81a59,59,0,0,0,6.16-26.33c0-.14,0-.29,0-.43C129.86,82.19,122.62,95.45,122.08,103.78Z" transform="translate(-1.09 -1.14)" style="fill: #e0c097"/>
          <path d="M113.69,112.17c-.37-3.73,3.35-9.51,8.39-8.39.54-8.33,7.78-21.59,26.31-15.16a59.39,59.39,0,0,0-118.78,0c18.64-6.54,25.91,6.75,26.46,15.11,5-1.12,8.76,4.66,8.39,8.39,3.21-2.32,10.84,6.6,17.7,1a35.64,35.64,0,0,0,4.37-16.58H92a35.65,35.65,0,0,0,4.61,17C103.28,118.26,110.57,109.92,113.69,112.17Z" transform="translate(-1.09 -1.14)" style="fill: #2d2424"/>
        </g>
        <path d="M122.8,127.19c-.83-1.94-5.55-2.5-7.08-.69-.42-6.12-7.22-8.48-12-5.42-6-2.5-11.8-13.89-11.8-24.45H86.53c0,10.56-5.84,22-11.81,24.45-4.72-3.06-11.53-.7-11.94,5.42-1.53-1.81-6.25-1.25-7.09.69-.13-4.89-7.58-15.62-19.86-11.67a59.39,59.39,0,0,0,106.41-.14C130.21,111.81,122.94,122.36,122.8,127.19Z" transform="translate(-1.09 -1.14)" style="fill: #5c3d2e"/>
      </g>
      <g>
        <g>
          <g>
            <g>
              <polygon points="95.75 78.49 80.25 78.49 79.78 80.17 96.17 80.17 95.75 78.49" style="fill: #455a64"/>
              <polygon points="79.78 80.17 78.56 84.58 97.27 84.58 96.17 80.17 79.78 80.17" style="fill: #546e7a"/>
            </g>
            <path d="M99.49,87.11h-21a.69.69,0,0,1-.69-.69h0a.7.7,0,0,1,.69-.7h21a.71.71,0,0,1,.7.7h0A.7.7,0,0,1,99.49,87.11Z" transform="translate(-1.09 -1.14)" style="fill: #455a64"/>
          </g>
          <g>
            <path d="M79.25,87.11c-2.14,5.7-.13,12.41,1.14,14.1l1.21-1.76c0,3.52,4.25,9.58,7.4,12.64v-25Z" transform="translate(-1.09 -1.14)" style="fill: #fe5722"/>
            <path d="M98.75,87.11c2.15,5.7.14,12.41-1.14,14.1l-1.2-1.76c0,3.52-4.26,9.58-7.41,12.64v-25Z" transform="translate(-1.09 -1.14)" style="fill: #f3511e"/>
          </g>
          <g>
            <path d="M82.81,87.11a11.43,11.43,0,0,0,.72,9L84.3,95c0,2.23,2.7,6.08,4.7,8V87.11Z" transform="translate(-1.09 -1.14)" style="fill: #fec928"/>
            <path d="M95.19,87.11a11.34,11.34,0,0,1-.72,9L93.7,95c0,2.23-2.7,6.08-4.7,8V87.11Z" transform="translate(-1.09 -1.14)" style="fill: #fec007"/>
          </g>
        </g>
        <g>
          <g>
            <g>
              <path d="M98.37,28.2H89V79.67h14.56V45.13A30.22,30.22,0,0,0,98.37,28.2Z" transform="translate(-1.09 -1.14)" style="fill: #ced7db"/>
              <path d="M79.63,28.2h0a30.24,30.24,0,0,0-5.19,16.93V79.67H89V28.2Z" transform="translate(-1.09 -1.14)" style="fill: #ebeef0"/>
              <path d="M98.37,28.2,94.18,22A6.19,6.19,0,0,0,89,19.26V28.2Z" transform="translate(-1.09 -1.14)" style="fill: #455a64"/>
              <path d="M89,19.26A6.19,6.19,0,0,0,83.83,22l-4.2,6.19H89Z" transform="translate(-1.09 -1.14)" style="fill: #546e7a"/>
            </g>
            <g>
              <path d="M98,50.22a9,9,0,1,1-9-9A9,9,0,0,1,98,50.22Z" transform="translate(-1.09 -1.14)" style="fill: #455a64"/>
              <g>
                <g>
                  <path d="M96.19,50.22a7.18,7.18,0,0,0-1.94-4.91c0,.14,0,.28,0,.43a16.11,16.11,0,0,1-5,11.68A7.21,7.21,0,0,0,96.19,50.22Z" transform="translate(-1.09 -1.14)" style="fill: #5c3d2e"/>
                  <path d="M94.26,45.74c0-.15,0-.29,0-.43a7.18,7.18,0,0,0-3.82-2.16c0,.19,0,.39,0,.59a8,8,0,0,1-8,8l-.6,0A7.23,7.23,0,0,0,89,57.43h.29A16.11,16.11,0,0,0,94.26,45.74Z" transform="translate(-1.09 -1.14)" style="fill: #b85c38"/>
                </g>
                <path d="M90.45,43.74c0-.2,0-.4,0-.59A7,7,0,0,0,89,43a7.21,7.21,0,0,0-7.21,7.22,7.67,7.67,0,0,0,.14,1.45l.6,0A8,8,0,0,0,90.45,43.74Z" transform="translate(-1.09 -1.14)" style="fill: #e0c097"/>
              </g>
            </g>
          </g>
          <g>
            <polygon points="102.47 64.23 102.47 78.53 105.38 78.53 105.38 65.76 102.47 64.23" style="fill: #afbdc4"/>
            <path d="M117.18,75.13a4.32,4.32,0,0,0-2.32-3.83l-8.39-4.4V79.67h10.71Z" transform="translate(-1.09 -1.14)" style="fill: #ced7db"/>
          </g>
          <g>
            <polygon points="73.36 64.23 73.36 78.53 70.44 78.53 70.44 65.76 73.36 64.23" style="fill: #afbdc4"/>
            <path d="M60.82,75.13a4.33,4.33,0,0,1,2.31-3.83l8.4-4.4V79.67H60.82Z" transform="translate(-1.09 -1.14)" style="fill: #ced7db"/>
          </g>
        </g>
      </g>
      <path d="M101.31,127.43a3.24,3.24,0,1,1-3.24-3.24A3.23,3.23,0,0,1,101.31,127.43Z" transform="translate(-1.09 -1.14)" style="fill: #b85c38"/>
      <path d="M81,133.67a2.78,2.78,0,1,1-2.77-2.77A2.77,2.77,0,0,1,81,133.67Z" transform="translate(-1.09 -1.14)" style="fill: #b85c38"/>
      <path d="M75.09,103.56A2.06,2.06,0,1,1,73,101.5,2.05,2.05,0,0,1,75.09,103.56Z" transform="translate(-1.09 -1.14)" style="fill: #e0c097"/>
      <path d="M43.65,98.9a1.76,1.76,0,1,1-1.75-1.75A1.76,1.76,0,0,1,43.65,98.9Z" transform="translate(-1.09 -1.14)" style="fill: #5c3d2e"/>
      <path d="M134.94,98.6a2.18,2.18,0,1,1-2.17-2.18A2.18,2.18,0,0,1,134.94,98.6Z" transform="translate(-1.09 -1.14)" style="fill: #5c3d2e"/>
      <path d="M119.59,118.55a1.09,1.09,0,1,1-1.09-1.09A1.09,1.09,0,0,1,119.59,118.55Z" transform="translate(-1.09 -1.14)" style="fill: #5c3d2e"/>
    </g>
    <polygon points="162.07 85.57 163.77 89 167.56 89.55 164.82 92.22 165.46 96 162.07 94.22 158.69 96 159.33 92.22 156.59 89.55 160.38 89 162.07 85.57" style="fill: #feebb2"/>
    <polygon points="13.65 85.57 15.35 89 19.14 89.55 16.39 92.22 17.04 96 13.65 94.22 10.27 96 10.91 92.22 8.17 89.55 11.96 89 13.65 85.57" style="fill: #feebb2"/>
  </g>
</svg>
